# xmcd CD database file
#
# Track frame offsets:
#	150
#	36737
#	70231
#	97014
#	117835
#	150284
#	180676
#	209748
#
# Disc length: 3154 seconds
#
# Revision: 0
# Processed by: cddbd v1.5.2PL0 Copyright (c) Steve Scherf et al.
# Submitted via: CDex 1.70beta2
#
DISCID=720c5008
DTITLE=Uli Beckerhoff - 70
DYEAR=2017
DGENRE=Jazz
TTITLE0=Anima
TTITLE1=Lady M.
TTITLE2=Snow queen
TTITLE3=Para Jimbo
TTITLE4=Lengue
TTITLE5=Prejera par Tualjas
TTITLE6=Soft Movements
TTITLE7=Heroes
EXTD=YEAR: 2017
EXTT0=
EXTT1=
EXTT2=
EXTT3=
EXTT4=
EXTT5=
EXTT6=
EXTT7=
PLAYORDER=
